<?xml version="1.0" encoding="UTF-8" standalone="no"?>
<svg width="37px" height="36px" viewBox="0 0 37 36" version="1.1" xmlns="http://www.w3.org/2000/svg" xmlns:xlink="http://www.w3.org/1999/xlink">
    <!-- Generator: sketchtool 39.1 (31720) - http://www.bohemiancoding.com/sketch -->
    <title>94B56B60-645D-4AD3-95D7-6B445D50B350</title>
    <desc>Created with sketchtool.</desc>
    <defs></defs>
    <g id="Page-1" stroke="none" stroke-width="1" fill="none" fill-rule="evenodd">
        <g id="Homepage" transform="translate(-1210.000000, -1175.000000)" fill="#8FA2E5">
            <g id="Recommended-Stations" transform="translate(232.000000, 804.000000)">
                <g id="browse-more-radios" transform="translate(875.000000, 349.000000)">
                    <g id="Group" transform="translate(103.000000, 22.000000)">
                        <path d="M31.4025641,31.3323077 L29.2774359,29.2071795 C35.1974359,23.2871795 35.1974359,13.7241026 29.2774359,7.80410256 C23.3574359,1.88410256 13.794359,1.88410256 7.87435897,7.80410256 C1.8025641,13.7241026 1.8025641,23.2871795 7.7225641,29.2071795 L5.5974359,31.3323077 C-1.53692308,24.1979487 -1.53692308,12.6615385 5.5974359,5.52717949 C12.7317949,-1.60717949 24.2682051,-1.60717949 31.4025641,5.52717949 C38.5369231,12.6615385 38.5369231,24.1979487 31.4025641,31.3323077 L31.4025641,31.3323077 Z" id="Shape"></path>
                        <path d="M27.1523077,27.0820513 L25.0271795,24.9569231 C28.5184615,21.465641 28.5184615,15.6974359 25.0271795,12.054359 C21.5358974,8.56307692 15.7676923,8.56307692 12.1246154,12.054359 C8.63333333,15.545641 8.63333333,21.3138462 12.1246154,24.9569231 L9.99948718,27.0820513 C5.29384615,22.3764103 5.29384615,14.6348718 9.99948718,9.92923077 C14.7051282,5.22358974 22.4466667,5.22358974 27.1523077,9.92923077 C31.8579487,14.6348718 31.8579487,22.3764103 27.1523077,27.0820513 L27.1523077,27.0820513 Z" id="Shape"></path>
                        <path d="M20.0179487,35.4307692 L16.9820513,35.4307692 L16.9820513,26.0194872 C16.9820513,24.0461538 18.0446154,22.2246154 20.0179487,21.1620513 C20.3215385,21.0102564 20.4733333,20.8584615 20.6251282,20.7066667 C21.2323077,20.0994872 21.5358974,19.1887179 21.5358974,18.2779487 C21.3841026,17.3671795 20.9287179,16.6082051 20.1697436,16.0010256 C19.1071795,15.2420513 17.7410256,15.2420513 16.6784615,16.0010256 C15.9194872,16.6082051 15.4641026,17.3671795 15.3123077,18.2779487 C15.1605128,19.1887179 15.6158974,20.0994872 16.2230769,20.7066667 L14.0979487,22.8317949 C12.8835897,21.6174359 12.1246154,19.7958974 12.2764103,17.974359 C12.4282051,16.1528205 13.3389744,14.4830769 14.8569231,13.5723077 C16.8302564,12.2061538 19.714359,12.2061538 21.8394872,13.5723077 C23.3574359,14.6348718 24.2682051,16.3046154 24.42,17.974359 C24.5717949,19.7958974 23.9646154,21.465641 22.5984615,22.8317949 C22.1430769,23.2871795 21.8394872,23.5907692 21.2323077,23.894359 C20.3215385,24.3497436 19.714359,25.2605128 19.714359,26.1712821 L19.714359,35.4307692 L20.0179487,35.4307692 Z" id="Shape"></path>
                    </g>
                </g>
            </g>
        </g>
    </g>
</svg>