<?xml version="1.0" encoding="UTF-8"?>
<svg width="18px" height="18px" viewBox="0 0 18 18" version="1.1" xmlns="http://www.w3.org/2000/svg" xmlns:xlink="http://www.w3.org/1999/xlink">
    <!-- Generator: Sketch 39.1 (31720) - http://www.bohemiancoding.com/sketch -->
    <title>liveicon</title>
    <desc>Created with Sketch.</desc>
    <defs></defs>
    <g id="Page-1" stroke="none" stroke-width="1" fill="none" fill-rule="evenodd">
        <g id="Desktop-HD" transform="translate(-544.000000, -603.000000)" fill="#E3081E">
            <g id="liveicon" transform="translate(544.280626, 603.442717)">
                <g id="94B56B60-645D-4AD3-95D7-6B445D50B350">
                    <g id="Page-1">
                        <g id="Homepage">
                            <g id="Recommended-Stations">
                                <g id="browse-more-radios">
                                    <g id="Group">
                                        <path d="M14.7309621,14.6980047 L13.7340631,13.7011058 C16.5111387,10.9240302 16.5111387,6.43798493 13.7340631,3.66090929 C10.9569875,0.883833665 6.47094225,0.883833665 3.69386662,3.66090929 C0.845583923,6.43798493 0.845583923,10.9240302 3.62265955,13.7011058 L2.62576061,14.6980047 C-0.720971558,11.3512726 -0.720971558,5.93953546 2.62576061,2.59280328 C5.97249278,-0.753928883 11.3842299,-0.753928883 14.7309621,2.59280328 C18.0776942,5.93953546 18.0776942,11.3512726 14.7309621,14.6980047 L14.7309621,14.6980047 L14.7309621,14.6980047 Z" id="Shape"></path>
                                        <path d="M12.7371642,12.7042069 L11.7402652,11.7073079 C13.3780278,10.0695453 13.3780278,7.36367679 11.7402652,5.65470719 C10.1025027,4.01694463 7.39663411,4.01694463 5.68766451,5.65470719 C4.04990195,7.29246971 4.04990195,9.99833831 5.68766451,11.7073079 L4.69076556,12.7042069 C2.48334647,10.4967878 2.48334647,6.86522732 4.69076556,4.65780824 C6.89818464,2.45038915 10.5297451,2.45038915 12.7371642,4.65780824 C14.9445832,6.86522732 14.9445832,10.4967878 12.7371642,12.7042069 L12.7371642,12.7042069 L12.7371642,12.7042069 Z" id="Shape"></path>
                                        <path d="M9.39043199,16.6205955 L7.96629067,16.6205955 L7.96629067,12.2057574 C7.96629067,11.2800655 8.46474014,10.4255807 9.39043199,9.92713122 C9.53284616,9.85592414 9.60405319,9.78471706 9.67526027,9.71351003 C9.96008855,9.42868175 10.1025027,9.00143932 10.1025027,8.57419693 C10.0312956,8.14695454 9.81767438,7.79091918 9.46163908,7.50609091 C8.96318961,7.1500556 8.32232597,7.1500556 7.8238765,7.50609091 C7.46784119,7.79091918 7.25422,8.14695454 7.18301292,8.57419693 C7.11180584,9.00143932 7.32542703,9.42868175 7.61025531,9.71351003 L6.61335637,10.710409 C6.04369982,10.1407524 5.68766451,9.28626759 5.75887159,8.43178281 C5.83007862,7.57729799 6.25732106,6.79402024 6.96939172,6.36677785 C7.89508358,5.72591422 9.24801788,5.72591422 10.2449168,6.36677785 C10.9569875,6.86522732 11.3842299,7.64850507 11.455437,8.43178281 C11.526644,9.28626759 11.2418158,10.0695453 10.6009521,10.710409 C10.3873309,10.9240302 10.2449168,11.0664443 9.96008855,11.2088584 C9.53284616,11.4224796 9.24801788,11.849722 9.24801788,12.2769645 L9.24801788,16.6205955 L9.39043199,16.6205955 L9.39043199,16.6205955 Z" id="Shape"></path>
                                    </g>
                                </g>
                            </g>
                        </g>
                    </g>
                </g>
            </g>
        </g>
    </g>
</svg>