<?xml version="1.0" encoding="UTF-8"?>
<svg width="82px" height="33px" viewBox="0 0 82 33" version="1.1" xmlns="http://www.w3.org/2000/svg" xmlns:xlink="http://www.w3.org/1999/xlink">
    <!-- Generator: Sketch 39.1 (31720) - http://www.bohemiancoding.com/sketch -->
    <title>wnyc-logo</title>
    <desc>Created with Sketch.</desc>
    <defs></defs>
    <g id="Page-1" stroke="none" stroke-width="1" fill="none" fill-rule="evenodd">
        <g id="Desktop-HD" transform="translate(-41.000000, -30.000000)" fill="#FFFFFF">
            <g id="wnyc-logo" transform="translate(41.397237, 29.901015)">
                <g id="Layer_1">
                    <path d="M42.3819985,6.80189326 L42.3819985,32.5107723 L60.4008693,32.5107723 L60.4008693,6.80189326 L42.3819985,6.80189326 L42.3819985,6.80189326 Z M53.0212725,19.4946949 L53.0212725,24.008644 L49.8080497,24.008644 L49.8080497,19.5435317 L45.4260791,12.4760139 L49.0676363,12.4760139 L51.4387222,16.5287531 L53.8279134,12.4760139 L57.4032431,12.4760139 L53.0212725,19.4946949 L53.0212725,19.4946949 Z" id="Shape"></path>
                    <path d="M63.5693051,0.101485238 L63.5693051,32.5122017 L81.5872231,32.5122017 L81.5872231,0.101485238 L63.5693051,0.101485238 L63.5693051,0.101485238 Z M72.9988561,24.2392489 C69.7046357,24.2392489 67.0519641,21.7202233 67.0519641,18.2754427 L67.0519641,18.2432819 C67.0519641,14.8823576 69.6379318,12.2463619 73.1301199,12.2463619 C75.4859591,12.2463619 77.0018055,13.2340563 78.0230901,14.6517526 L75.6179376,16.51303 C74.9589982,15.6892367 74.2016706,15.162514 73.0974826,15.162514 C71.4825332,15.162514 70.3461844,16.5285149 70.3461844,18.2096917 L70.3461844,18.2435201 C70.3461844,19.972819 71.4825332,21.3238115 73.0974826,21.3238115 C74.3002971,21.3238115 75.0087879,20.7630222 75.6994116,19.923744 L78.1059935,21.6366052 C77.0184815,23.1355374 75.5519484,24.2392489 72.9988561,24.2392489 L72.9988561,24.2392489 Z" id="Shape"></path>
                    <path d="M21.1942153,3.91766372 L21.1942153,32.5107723 L39.2133244,32.5107723 L39.2133244,3.91766372 L21.1942153,3.91766372 L21.1942153,3.91766372 Z M35.8159512,24.008644 L33.0146251,24.008644 L28.0899705,17.6822543 L28.0899705,24.008644 L24.9265374,24.008644 L24.9265374,12.4760139 L27.9082023,12.4760139 L32.6527563,18.5713222 L32.6527563,12.4760139 L35.8161894,12.4760139 L35.8161894,24.008644 L35.8159512,24.008644 L35.8159512,24.008644 Z" id="Shape"></path>
                    <polygon id="Shape" points="3.91790195 24.066057 6.70255207 24.066057 9.00836339 17.4273501 11.3322801 24.066057 14.1159773 24.066057 17.9702723 12.4519529 14.6600906 12.4519529 12.6492059 19.1247264 10.4258215 12.4193156 7.6747616 12.4193156 5.45066257 19.1247264 3.44096898 12.4519529 0.0626540322 12.4519529"></polygon>
                    <rect id="Rectangle-path" x="0.00690861952" y="27.0334282" width="18.0191091" height="5.47734414"></rect>
                </g>
            </g>
        </g>
    </g>
</svg>